<?xml version="1.0" encoding="utf-8"?>
<!-- Generator: Adobe Illustrator 17.0.0, SVG Export Plug-In . SVG Version: 6.00 Build 0)  -->
<!DOCTYPE svg PUBLIC "-//W3C//DTD SVG 1.1//EN" "http://www.w3.org/Graphics/SVG/1.1/DTD/svg11.dtd">
<svg version="1.1" id="_x30_3" xmlns="http://www.w3.org/2000/svg" xmlns:xlink="http://www.w3.org/1999/xlink" x="0px" y="0px"
	 width="200px" height="200px" viewBox="0 0 200 200" enable-background="new 0 0 200 200" xml:space="preserve">
<g>
	<g>
		<g>
			<g>
				<line fill="none" stroke="#FFB300" stroke-width="9.5626" x1="121.082" y1="143.104" x2="121.082" y2="120.919"/>
				<line fill="none" stroke="#FFB300" stroke-width="9.5626" x1="121.082" y1="58.646" x2="121.082" y2="36.464"/>
				<line fill="none" stroke="#FFB300" stroke-width="9.5626" x1="90.552" y1="89.469" x2="68.37" y2="89.469"/>
				<line fill="none" stroke="#FFB300" stroke-width="9.5626" x1="173.794" y1="89.635" x2="151.612" y2="89.635"/>
				
					<radialGradient id="SVGID_1_" cx="3737.1328" cy="4648.8032" r="77.592" fx="3687.0376" fy="4596.0269" gradientTransform="matrix(0.324 0 0 0.324 -1089.4867 -1416.2616)" gradientUnits="userSpaceOnUse">
					<stop  offset="0" style="stop-color:#FFFF4D"/>
					<stop  offset="0.1841" style="stop-color:#FFF645"/>
					<stop  offset="0.4844" style="stop-color:#FFDE30"/>
					<stop  offset="0.8612" style="stop-color:#FFB60E"/>
					<stop  offset="1" style="stop-color:#FFA600"/>
				</radialGradient>
				<path fill="url(#SVGID_1_)" d="M121.099,64.259c-13.714,0-24.852,11.397-24.852,25.441s11.138,25.434,24.852,25.434
					c13.699,0,24.815-11.389,24.815-25.434S134.798,64.259,121.099,64.259z"/>
			</g>
			<g>
				<line fill="none" stroke="#FFB300" stroke-width="9.5626" x1="158.079" y1="52.191" x2="142.394" y2="67.872"/>
				<line fill="none" stroke="#FFB300" stroke-width="9.5626" x1="99.183" y1="111.065" x2="83.502" y2="126.75"/>
				<line fill="none" stroke="#FFB300" stroke-width="9.5626" x1="83.283" y1="52.011" x2="98.974" y2="67.69"/>
				<line fill="none" stroke="#FFB300" stroke-width="9.5626" x1="143.191" y1="111.87" x2="158.876" y2="127.562"/>
			</g>
		</g>
		<g>
			<g>
				<g>
					<g>
						<path fill="#7F7F7F" d="M190.343,163.535c8.28-12.564-0.502-21.408-5.318-24.719c-5.974-4.106-19.282-3.41-19.282-3.41
							c-8.351-18.615-24.028-23.469-37.924-18.008c-2.368-17.998-14.146-30.598-23.566-35.993
							c-18.844-10.787-49.488-1.8-55.374,32.394c-20.025-7.195-44.503,26.144-23.199,49.735H190.343z"/>
						<path fill="#EFEFEF" stroke="#808080" stroke-width="3.5682" d="M179.142,152.327c8.278-12.561-0.501-21.397-5.317-24.708
							c-5.974-4.11-19.283-3.42-19.283-3.42c-8.347-18.612-24.028-23.465-37.923-18.001c-2.376-17.995-14.143-30.598-23.566-35.99
							c-18.848-10.79-49.488-1.8-55.374,32.398c-20.029-7.205-44.506,26.137-23.199,49.721H179.142z"/>
					</g>
				</g>
			</g>
		</g>
	</g>
</g>
</svg>
